<svg width="600" height="600" viewBox="0 0 600 600" fill="none" xmlns="http://www.w3.org/2000/svg">
<rect width="600" height="600" fill="white"/>
<path fill-rule="evenodd" clip-rule="evenodd" d="M575 25H25V575H575V25ZM535.714 300C535.714 169.819 430.181 64.2857 300 64.2857C169.819 64.2857 64.2857 169.819 64.2857 300C64.2857 430.181 169.819 535.714 300 535.714V300H535.714ZM441.727 535.714H535.714V441.727C512.533 480.199 480.199 512.533 441.727 535.714ZM532.455 339.286C515.896 437.991 437.991 515.896 339.286 532.455V339.286H532.455ZM441.727 64.2857C480.199 87.4673 512.533 119.801 535.714 158.273V64.2857H441.727ZM64.2857 441.727C87.4673 480.199 119.801 512.533 158.273 535.714H64.2857V441.727ZM158.273 64.2857C119.801 87.4673 87.4673 119.801 64.2857 158.273V64.2857H158.273Z" fill="#6E6E6E"/>
</svg>
