<svg xmlns="http://www.w3.org/2000/svg" viewBox="0 0 50 50"><defs><style>.cls-1{fill:#666;}.cls-2{fill:#231815;opacity:0.79;}.cls-3{fill:#f7f8f8;opacity:0.5;}</style></defs><title>資產 8</title><g id="圖層_2" data-name="圖層 2"><g id="圖層_1-2" data-name="圖層 1"><rect class="cls-1" width="50" height="50" rx="4.27"/><path class="cls-2" d="M39.78,13.7A18.56,18.56,0,1,0,14.57,40.31L24.26,50H45.73A4.27,4.27,0,0,0,50,45.73V25.92Z"/><path class="cls-3" d="M7.52,18.81h35a18.54,18.54,0,0,0-35,0Z"/><path class="cls-3" d="M18.81,42.48v-35a18.54,18.54,0,0,0,0,35Z"/><path class="cls-3" d="M42.48,31.19h-35a18.54,18.54,0,0,0,35,0Z"/><path class="cls-3" d="M31.19,22V42.48A18.55,18.55,0,0,0,43.56,25V22Z"/></g></g></svg>